<svg width="28" height="28" viewBox="0 0 16 17" fill="none" xmlns="http://www.w3.org/2000/svg" data-cy="svg-icon" color="#9797B6" opacity="1"><path fill-rule="evenodd" clip-rule="evenodd" d="M13.5396 5.25404L8.45905 2.36812C8.31927 2.28882 8.1607 2.24707 7.99929 2.24707C7.83788 2.24707 7.67931 2.28882 7.53953 2.36812L6.49986 2.95255L12.4964 6.36563V11.4689L10.9976 12.3198L6.49986 9.76818V8.94998C6.66553 8.79847 6.78057 8.60117 6.8298 8.3841C6.87904 8.16704 6.86015 7.94041 6.77564 7.73411C6.69112 7.52781 6.54495 7.35152 6.3564 7.22851C6.16784 7.1055 5.94577 7.04155 5.71947 7.04508C5.49318 7.0486 5.27328 7.11946 5.0888 7.24828C4.90432 7.37711 4.76391 7.55786 4.6861 7.7667C4.60829 7.97553 4.59673 8.20264 4.65295 8.41806C4.70917 8.63347 4.83053 8.82709 5.00101 8.97335V10.6191L10.9988 14.0217L13.5396 12.5805C13.6795 12.5013 13.7956 12.3873 13.8764 12.2501C13.9572 12.1128 13.9998 11.9571 14 11.7985V6.03601C13.9998 5.87743 13.9572 5.72169 13.8764 5.58443C13.7956 5.44717 13.6795 5.33322 13.5396 5.25404Z" fill="currentColor"></path><path fill-rule="evenodd" clip-rule="evenodd" d="M10.9978 8.84009V7.21538L4.99887 3.81282L2.45917 5.25286C2.31948 5.33238 2.20352 5.4466 2.12293 5.58405C2.04234 5.7215 1.99994 5.87736 2 6.036V11.7985C1.99991 11.957 2.0423 12.1127 2.12291 12.2499C2.20351 12.3872 2.31949 12.5012 2.45917 12.5805L7.53857 15.4594C7.67835 15.5387 7.83692 15.5804 7.99833 15.5804C8.15974 15.5804 8.31831 15.5387 8.4581 15.4594L9.4942 14.8749L3.50003 11.4689V6.36562L4.99887 5.51469L9.4942 8.06631V8.85529C9.32805 9.00582 9.21222 9.2023 9.16198 9.41881C9.11174 9.63532 9.12944 9.86171 9.21277 10.0681C9.29609 10.2746 9.44111 10.4513 9.62872 10.5752C9.81634 10.699 10.0377 10.764 10.2637 10.7617C10.4897 10.7594 10.7097 10.6899 10.8947 10.5623C11.0796 10.4347 11.2209 10.255 11.2999 10.047C11.3788 9.83891 11.3918 9.61221 11.337 9.39676C11.2822 9.18131 11.1623 8.98723 10.993 8.84009H10.9978Z" fill="currentColor"></path></svg>
